<?xml version="1.0" ?><svg id="Layer_1" style="enable-background:new 0 0 512 512;" version="1.1" viewBox="0 0 512 512" xml:space="preserve" xmlns="http://www.w3.org/2000/svg" xmlns:xlink="http://www.w3.org/1999/xlink"><style type="text/css">
	.st0{fill-rule:evenodd;clip-rule:evenodd;}
</style><g><path class="st0" d="M383.5,353.5c-25.1,14.3-50.3,28.5-75.6,42.6c-12.8,7.1-25.6,14.1-38.4,21.3c-5.3,3-10.9,7.8-17.1,8.9   c-6.4,1.1-12.3-2.1-18.1-4.3c-15.1-5.9-30.5-11.6-45.6-17.4c-9.1-3.5-5.5-14.3-0.8-19.5c6.6-7.3,18.3-0.8,25.2,2.4   c10.5,4.9,21.6,7.8,32.6,11.3c24.5,7.9,50.1-31.9,27.1-47.6c-8.5-5.7-20.7-8.6-30.3-12.4c-21-8.3-42.1-16.5-62.9-25.3   c-13.8-5.8-27.7-13.4-42.7-15.3c-13.9-1.7-30,0.7-43.4,4.6c-7.4,2.1-15.8,5.8-21.7,10.8c-4,3.4-7.4,8.6-9,13.6v112   c0,0,0.7,6.4,7.1,4.9c18.9-4.4,41.4-3.1,60.2,1c17.7,3.9,33.8,13.5,50.5,20.2c18.5,7.4,37.5,13.3,56.2,19.9   c30.9,10.9,52.9-15.4,77.4-29.2c29.9-16.8,59.7-33.8,89.5-50.6c5-2.8,9.9-5.6,14.9-8.4c7.7-4.4,15.1-20.5,14.3-28.8   C430.6,342.4,400.3,343.9,383.5,353.5z"/><path class="st0" d="M43.1,326.9H18c-6.6,0-12,5.4-12,12v93.3c0,6.6,5.4,12,12,12h25.1c6.6,0,12-5.4,12-12v-93.3   C55.1,332.3,49.7,326.9,43.1,326.9z M37,354.4c-5,0-9-4-9-9c0-5,4-9,9-9c5,0,9,4,9,9C46,350.3,41.9,354.4,37,354.4z"/><g><rect class="st0" height="17.1" width="419.5" x="86.5" y="262.2"/><path class="st0" d="M122.7,253c0.3-2.7,0.8-6.9,1.6-11.3c0.2-0.9,0.3-1.8,0.5-2.8c0.2-1,0.4-2,0.7-3c0.5-2.1,1-4.4,1.5-6.8    c0.3-1.2,0.6-2.5,0.9-3.7c0.4-1.3,0.7-2.6,1.1-3.9c0.8-2.7,1.6-5.5,2.4-8.4c2-5.8,4-12.1,6.7-18.5c0.7-1.6,1.3-3.3,2-4.9    c0.8-1.6,1.5-3.3,2.3-4.9c0.8-1.7,1.6-3.3,2.3-5c0.8-1.7,1.7-3.3,2.6-5c0.9-1.7,1.8-3.4,2.7-5.1c0.9-1.7,2-3.3,2.9-5    c1-1.7,2-3.3,3-5c1.1-1.7,2.2-3.3,3.3-4.9c1.1-1.6,2.2-3.3,3.3-4.9c1.2-1.6,2.4-3.2,3.6-4.8c2.3-3.2,4.9-6.3,7.4-9.3    c1.2-1.6,2.6-3,3.9-4.5c1.3-1.5,2.7-2.9,4-4.4c1.4-1.4,2.8-2.8,4.1-4.2c1.4-1.4,2.7-2.8,4.2-4.1c1.4-1.3,2.8-2.6,4.2-4    c1.4-1.3,2.9-2.5,4.3-3.8c2.8-2.5,5.8-4.8,8.6-7.1c1.4-1.2,2.9-2.2,4.3-3.3c1.5-1.1,2.9-2.2,4.3-3.1c2.9-2,5.7-4,8.5-5.7    c5.6-3.6,11.1-6.7,16.2-9.5c5.1-2.7,9.9-5,14.2-6.9c4.3-1.9,8.1-3.4,11.2-4.6c6.3-2.4,10-3.3,10-3.3s-3.6,1.3-9.6,4.3    c-6,2.9-14.4,7.5-23.9,13.9c-4.7,3.2-9.8,6.8-14.9,10.8c-2.6,2-5.1,4.2-7.8,6.4c-1.3,1.1-2.6,2.3-3.9,3.5    c-1.3,1.2-2.6,2.3-3.9,3.6c-2.5,2.5-5.2,5-7.7,7.7c-1.2,1.3-2.6,2.6-3.8,4c-1.2,1.4-2.4,2.8-3.7,4.2c-1.3,1.4-2.4,2.8-3.6,4.3    c-1.2,1.5-2.4,2.9-3.5,4.4c-1.1,1.5-2.2,3-3.4,4.5c-1.1,1.5-2.3,3-3.3,4.6c-2.1,3.2-4.3,6.2-6.1,9.5c-1,1.6-1.9,3.2-2.9,4.8    c-0.9,1.6-1.8,3.3-2.7,4.9c-0.9,1.6-1.8,3.2-2.6,4.9c-0.8,1.7-1.6,3.3-2.3,4.9c-0.8,1.6-1.6,3.2-2.3,4.9c-0.7,1.6-1.4,3.3-2,4.9    c-0.7,1.6-1.4,3.2-2,4.8c-0.6,1.6-1.1,3.2-1.7,4.8c-0.6,1.6-1.1,3.2-1.7,4.7c-0.5,1.6-0.9,3.1-1.4,4.7c-2,6.1-3.2,12.1-4.5,17.5    c-0.5,2.8-1,5.4-1.4,7.9c-0.2,1.3-0.5,2.5-0.7,3.7c-0.2,1.2-0.3,2.4-0.5,3.5c-0.3,2.3-0.6,4.4-0.8,6.3c-0.1,1-0.2,1.9-0.4,2.8    c-0.1,0.9-0.1,1.8-0.2,2.6c-0.3,3.5-0.5,6.1-0.6,7.9h344c0-0.8,0-1.6,0-2.4c0-107.6-83.1-195.3-187-199V40.4    c10.2-1,17.6-4.2,17.6-7.9c0-4.5-11-8.2-24.5-8.2s-24.5,3.7-24.5,8.2c0,3.7,7.4,6.9,17.6,7.9v11.2c-103.9,3.7-187,91.4-187,199    c0,0.8,0,1.6,0,2.4H122.7z M374.4,89.7c1.5,0.5,3.3,1.3,5.3,2.2c2,0.9,4.3,2,6.7,3.3c2.4,1.3,5,2.8,7.6,4.5c1.3,0.8,2.7,1.8,4,2.7    c0.7,0.5,1.3,1,2,1.5c0.7,0.5,1.4,1,2,1.5c1.3,1.1,2.7,2.2,4.1,3.3c0.7,0.6,1.4,1.2,2,1.8c0.7,0.6,1.3,1.2,2,1.9    c0.7,0.6,1.3,1.3,2,1.9c0.6,0.7,1.3,1.3,1.9,2c0.6,0.7,1.2,1.4,1.9,2.1c0.6,0.7,1.3,1.4,1.8,2.1c1.2,1.5,2.4,2.9,3.5,4.4    c0.6,0.8,1.1,1.5,1.7,2.3c0.5,0.8,1,1.5,1.6,2.3c0.5,0.8,1,1.5,1.5,2.3c0.5,0.8,0.9,1.6,1.4,2.4c0.5,0.8,1,1.6,1.4,2.4    c0.4,0.8,0.8,1.6,1.3,2.4c0.4,0.8,0.9,1.6,1.2,2.4c0.4,0.8,0.7,1.6,1.1,2.4c0.4,0.8,0.7,1.6,1.1,2.3c0.3,0.8,0.6,1.6,0.9,2.3    c1.3,3,2.2,6,3.2,8.7c0.4,1.4,0.8,2.7,1.1,4c0.2,0.6,0.4,1.2,0.5,1.8c0.1,0.6,0.3,1.2,0.4,1.8c0.3,1.1,0.5,2.2,0.7,3.2    c0.1,0.5,0.2,1,0.3,1.4c0.1,0.5,0.2,0.9,0.2,1.3c0.6,3.3,0.9,6.6,0.9,6.6l-11.1-0.2c0,0-0.1-1.7-0.4-4.8c0-0.4-0.1-0.8-0.1-1.2    c-0.1-0.4-0.1-0.9-0.2-1.3c-0.1-0.9-0.2-1.9-0.4-3c-0.1-0.5-0.1-1.1-0.2-1.6c-0.1-0.6-0.2-1.1-0.3-1.7c-0.2-1.2-0.4-2.4-0.7-3.7    c-0.6-2.5-1.2-5.4-2.1-8.2c-0.2-0.7-0.4-1.5-0.7-2.2c-0.3-0.7-0.5-1.5-0.8-2.2c-0.3-0.7-0.5-1.5-0.8-2.3c-0.3-0.8-0.6-1.5-0.9-2.3    c-0.3-0.8-0.6-1.5-1-2.3c-0.3-0.8-0.7-1.5-1.1-2.3c-0.4-0.8-0.7-1.5-1.1-2.3c-0.4-0.8-0.8-1.5-1.2-2.3c-0.4-0.8-0.8-1.5-1.3-2.3    c-0.5-0.7-0.9-1.5-1.4-2.3c-0.9-1.5-1.9-3-2.9-4.5c-0.5-0.7-1-1.4-1.5-2.2c-0.5-0.7-1.1-1.4-1.6-2.1c-0.6-0.7-1.1-1.4-1.7-2.1    c-0.6-0.7-1.1-1.4-1.7-2c-0.6-0.7-1.2-1.3-1.7-2c-0.6-0.7-1.2-1.3-1.8-1.9c-1.2-1.3-2.4-2.4-3.6-3.6c-0.6-0.6-1.2-1.1-1.8-1.7    c-0.6-0.5-1.2-1.1-1.8-1.6c-1.2-1-2.4-2.1-3.6-3c-2.4-1.9-4.8-3.6-7-5.1c-4.5-3-8.4-5.1-11.2-6.5c-2.8-1.4-4.5-2-4.5-2    S371.5,88.6,374.4,89.7z"/></g></g></svg>