<?xml version="1.0" ?><!DOCTYPE svg  PUBLIC '-//W3C//DTD SVG 1.1//EN'  'http://www.w3.org/Graphics/SVG/1.1/DTD/svg11.dtd'><svg enable-background="new 0 0 128 128" id="Слой_1" version="1.1" viewBox="0 0 128 128" xml:space="preserve" xmlns="http://www.w3.org/2000/svg" xmlns:xlink="http://www.w3.org/1999/xlink"><g><g><path d="M64,7.5C32.8,7.5,7.5,32.8,7.5,64s25.3,56.5,56.5,56.5s56.5-25.3,56.5-56.5S95.2,7.5,64,7.5z M64,114.2    c-27.7,0-50.2-22.5-50.2-50.2S36.3,13.8,64,13.8s50.2,22.5,50.2,50.2S91.7,114.2,64,114.2z" fill="#55534C"/><path d="M64,7.5C32.8,7.5,7.5,32.8,7.5,64s25.3,56.5,56.5,56.5s56.5-25.3,56.5-56.5S95.2,7.5,64,7.5z" fill="#FFFFFF"/><g><path d="M64,121.8C32.1,121.8,6.2,95.9,6.2,64S32.1,6.2,64,6.2s57.8,25.9,57.8,57.8S95.9,121.8,64,121.8z M64,8.7     C33.5,8.7,8.7,33.5,8.7,64s24.8,55.3,55.3,55.3s55.3-24.8,55.3-55.3S94.5,8.7,64,8.7z" fill="#62355C"/></g><path d="M64,15.2c-26.9,0-48.8,21.9-48.8,48.8s21.9,48.8,48.8,48.8s48.8-21.9,48.8-48.8S90.9,15.2,64,15.2z" fill="#C27DB5"/><g><path d="M64,114c-27.6,0-50-22.4-50-50s22.4-50,50-50c27.6,0,50,22.4,50,50S91.6,114,64,114z M64,16.5     c-26.2,0-47.5,21.3-47.5,47.5s21.3,47.5,47.5,47.5c26.2,0,47.5-21.3,47.5-47.5S90.2,16.5,64,16.5z" fill="#62355C"/></g><g><path d="M61.4,72.1" fill="#62355C"/></g><g><path d="M73.4,20.9" fill="#62355C"/></g><g><path d="M86.1,83.7" fill="#62355C"/></g><g><path d="M56.8,59" fill="#62355C"/></g><path d="M86.1,85.5c-0.8,0-1.7-0.3-2.4-0.8L61.6,66.9c-0.9-0.7-1.4-1.8-1.4-2.9V23.8c0-2.1,1.7-3.8,3.8-3.8    s3.8,1.7,3.8,3.8v38.4l20.7,16.6c1.6,1.3,1.9,3.7,0.6,5.3C88.3,85,87.2,85.5,86.1,85.5z" fill="#D4B425"/><path d="M86.1,85.5c-0.8,0-1.7-0.3-2.4-0.8L61.6,66.9c-0.9-0.7-1.4-1.8-1.4-2.9V23.8c0-2.1,1.7-3.8,3.8-3.8    s3.8,1.7,3.8,3.8v38.4l20.7,16.6c1.6,1.3,1.9,3.7,0.6,5.3C88.3,85,87.2,85.5,86.1,85.5z" fill="#FFFFFF"/><path d="M67.9,60.7v-8.4c-1.2-0.4-2.4-0.7-3.7-0.7c-1.4,0-2.6,0.3-3.8,0.7v10.1    c0,1.1,0.5,2.2,1.4,2.9l8,6.4c2.2-1.3,3.9-3.4,4.7-5.9L67.9,60.7z" fill="#593055" opacity="0.2"/><g><path d="M86.1,86.7c-1.1,0-2.2-0.4-3.1-1.1L60.9,67.9C59.7,67,59,65.5,59,64V23.8c0-2.8,2.3-5,5-5s5,2.3,5,5v37.8     l20.2,16.2c1,0.8,1.7,2,1.9,3.4c0.1,1.3-0.2,2.6-1.1,3.7C89.1,86,87.6,86.7,86.1,86.7z M64,21.3c-1.4,0-2.5,1.1-2.5,2.5V64     c0,0.8,0.3,1.5,0.9,2l22.1,17.7c1.1,0.8,2.7,0.7,3.5-0.4c0.4-0.5,0.6-1.2,0.5-1.9c-0.1-0.7-0.4-1.3-0.9-1.7L67,63.2     c-0.3-0.2-0.5-0.6-0.5-1V23.8C66.5,22.4,65.4,21.3,64,21.3z" fill="#62355C"/></g></g><circle cx="64" cy="62.7" fill="#FEE444" r="6.4"/><g><path d="M64,70.3c-4.2,0-7.6-3.4-7.6-7.6c0-4.2,3.4-7.6,7.6-7.6s7.6,3.4,7.6,7.6C71.6,66.9,68.2,70.3,64,70.3z     M64,57.5c-2.8,0-5.1,2.3-5.1,5.1s2.3,5.1,5.1,5.1s5.1-2.3,5.1-5.1S66.8,57.5,64,57.5z" fill="#62355C"/></g><g><path d="M25.7,76.3c-0.5,0-1-0.3-1.2-0.9c-0.2-0.7,0.2-1.4,0.8-1.6l32-10c0.7-0.2,1.4,0.2,1.6,0.8    c0.2,0.7-0.2,1.4-0.8,1.6l-32,10C25.9,76.3,25.8,76.3,25.7,76.3z" fill="#62355C"/></g></g></svg>